<svg xmlns="http://www.w3.org/2000/svg" width="20" height="20"><defs><filter id="a"><feFlood flood-color="#0061FF" flood-opacity="1" result="floodOut"/><feComposite operator="atop" in="floodOut" in2="SourceGraphic" result="compOut"/><feBlend in="compOut" in2="SourceGraphic"/></filter></defs><path fill-rule="evenodd" d="M9.999 19.996c-5.512 0-9.997-4.484-9.997-9.997C.002 4.487 4.487.002 9.999.002c5.513 0 9.998 4.485 9.998 9.997 0 5.513-4.485 9.997-9.998 9.997zM8.855 9.619s1.123-.084 1.123-1.4c0-1.317-.918-1.96-2.083-1.96H4.067v7.359h3.828s2.338.074 2.338-2.172c0 0 .102-1.827-1.378-1.827zm5.949-2.927h-3.036v.907h3.036v-.907zm-1.452 1.439c-2.83 0-2.827 2.828-2.827 2.828s-.194 2.813 2.827 2.813c0 0 2.518.144 2.518-1.957h-1.295s.043.791-1.18.791c0 0-1.295.087-1.295-1.281h3.813s.418-3.194-2.561-3.194zm.028 1.078c1.137 0 1.122 1.134 1.122 1.134h-2.417s.158-1.134 1.295-1.134zM7.787 12.31H5.754v-1.967h2.141s.777-.01.777 1.011c0 .861-.58.949-.885.956zm-.024-3.101h-2.01V7.567h2.142s.521 0 .521.765c0 .766-.306.877-.653.877z" filter="url(#a)"/></svg>