<svg xmlns="http://www.w3.org/2000/svg" width="20" height="20"><defs><filter id="a"><feFlood flood-color="#EA4C89" flood-opacity="1" result="floodOut"/><feComposite operator="atop" in="floodOut" in2="SourceGraphic" result="compOut"/><feBlend in="compOut" in2="SourceGraphic"/></filter></defs><path fill-rule="evenodd" d="M10 0C4.486 0 0 4.486 0 10c0 5.513 4.486 9.999 10 9.999S20 15.513 20 10c0-5.514-4.486-10-10-10zm6.579 4.72a8.4 8.4 0 0 1 1.867 5.15 20.96 20.96 0 0 0-3.909-.378c-.619 0-1.272.032-1.925.112-.056-.133-.111-.268-.169-.403-.17-.4-.352-.796-.542-1.186 2.956-1.219 4.383-2.912 4.678-3.295zM10 1.565a8.41 8.41 0 0 1 5.566 2.099c-.236.322-1.513 1.92-4.364 2.999a45.525 45.525 0 0 0-3.107-4.88A8.422 8.422 0 0 1 10 1.565zm-3.629.821a54.492 54.492 0 0 1 3.091 4.818C5.83 8.16 2.604 8.223 1.826 8.223h-.082a8.476 8.476 0 0 1 4.627-5.837zm-4.819 7.627c0-.07.001-.14.003-.209l.222.002c1.048 0 4.687-.087 8.437-1.202.228.446.445.898.646 1.35-.094.028-.188.055-.281.085-4.222 1.366-6.543 4.981-6.9 5.571a8.41 8.41 0 0 1-2.127-5.597zM10 18.461a8.413 8.413 0 0 1-5.153-1.759c.241-.474 1.993-3.632 6.62-5.245l.01-.003c1.16 3.025 1.651 5.564 1.786 6.35a8.386 8.386 0 0 1-3.263.657zm4.784-1.49c-.113-.651-.568-3.03-1.619-5.932.59-.091 1.163-.127 1.701-.127a12.568 12.568 0 0 1 3.468.484 8.46 8.46 0 0 1-3.55 5.575z" filter="url(#a)"/></svg>