<svg xmlns="http://www.w3.org/2000/svg" width="87" height="68"><defs><filter id="a"><feFlood flood-color="#54D154" flood-opacity="1" result="floodOut"/><feComposite operator="atop" in="floodOut" in2="SourceGraphic" result="compOut"/><feBlend in="compOut" in2="SourceGraphic"/></filter></defs><path fill-rule="evenodd" d="M82.723 26.639c-2.274-5.307-5.335-9.878-9.18-13.715-3.845-3.836-8.428-6.889-13.748-9.159C54.475 1.496 48.9.36 43.068.36c-5.833 0-11.409 1.136-16.728 3.405-5.319 2.271-9.901 5.323-13.746 9.159-3.847 3.837-6.906 8.408-9.182 13.715C1.138 31.946 0 37.509 0 43.327c0 8.376 2.259 16.097 6.777 23.163.609.926 1.474 1.389 2.596 1.389h67.39c1.121 0 1.986-.463 2.594-1.389 4.519-7.098 6.778-14.818 6.778-23.163 0-5.818-1.137-11.381-3.412-16.688zM38.717 8.298c1.203-1.2 2.652-1.799 4.351-1.799 1.698 0 3.148.599 4.349 1.799 1.202 1.198 1.804 2.645 1.804 4.339 0 1.694-.602 3.141-1.804 4.339-1.201 1.2-2.651 1.8-4.349 1.8-1.699 0-3.149-.6-4.351-1.8-1.201-1.198-1.802-2.645-1.802-4.339 0-1.694.6-3.141 1.802-4.339zM16.655 47.667c-1.202 1.199-2.652 1.799-4.35 1.799-1.698 0-3.148-.6-4.35-1.799-1.202-1.198-1.802-2.646-1.802-4.34s.6-3.141 1.802-4.34c1.202-1.199 2.652-1.798 4.35-1.798 1.698 0 3.149.599 4.35 1.798 1.202 1.199 1.803 2.646 1.803 4.34s-.601 3.141-1.803 4.34zm9.229-21.483c-1.202 1.199-2.652 1.798-4.35 1.798-1.699 0-3.149-.6-4.351-1.798-1.201-1.199-1.802-2.645-1.802-4.34 0-1.694.601-3.14 1.802-4.34 1.203-1.199 2.652-1.798 4.351-1.798 1.698 0 3.148.599 4.35 1.798 1.201 1.2 1.803 2.646 1.803 4.34s-.602 3.141-1.803 4.34zm27.229.408l-4.855 18.317c1.603 1.087 2.757 2.541 3.462 4.365.704 1.822.801 3.692.288 5.61-.641 2.461-2.067 4.332-4.278 5.611-2.212 1.278-4.55 1.599-7.018.958-2.467-.639-4.342-2.061-5.624-4.267-1.281-2.207-1.602-4.539-.961-7.002.513-1.917 1.522-3.492 3.029-4.722a9.14 9.14 0 0 1 5.142-2.087l4.855-18.318a3.03 3.03 0 0 1 1.442-1.895c.737-.43 1.505-.535 2.307-.311a3.04 3.04 0 0 1 1.85 1.414c.434.72.554 1.495.361 2.327zm7.139-.408c-1.202-1.199-1.804-2.645-1.804-4.34 0-1.694.602-3.14 1.804-4.34 1.201-1.199 2.651-1.798 4.349-1.798 1.699 0 3.148.599 4.35 1.798 1.202 1.2 1.804 2.646 1.804 4.34s-.602 3.141-1.804 4.34c-1.202 1.199-2.651 1.798-4.35 1.798-1.698 0-3.148-.599-4.349-1.798zM78.18 47.667c-1.202 1.199-2.652 1.799-4.35 1.799-1.698 0-3.148-.6-4.35-1.799-1.202-1.198-1.803-2.646-1.803-4.34s.601-3.141 1.803-4.34c1.202-1.199 2.652-1.798 4.35-1.798 1.698 0 3.148.599 4.35 1.798 1.201 1.199 1.802 2.646 1.802 4.34s-.6 3.141-1.802 4.34z" filter="url(#a)"/></svg>