<svg xmlns="http://www.w3.org/2000/svg" width="87" height="74"><defs><filter id="a"><feFlood flood-color="#54D154" flood-opacity="1" result="floodOut"/><feComposite operator="atop" in="floodOut" in2="SourceGraphic" result="compOut"/><feBlend in="compOut" in2="SourceGraphic"/></filter></defs><path fill-rule="evenodd" d="M84.733 71.397c-1.506 1.503-3.317 2.253-5.431 2.253H8.548c-2.115 0-3.926-.75-5.432-2.253C1.61 69.895.857 68.088.857 65.979V42.962h32.301v7.671c0 .832.304 1.551.913 2.159.609.607 1.33.911 2.163.911h15.382c.833 0 1.554-.304 2.163-.911.608-.608.913-1.327.913-2.159v-7.671h32.3v23.017c0 2.109-.752 3.916-2.259 5.418zM37.772 49.099v-6.137h12.306v6.137H37.772zM.857 19.943c0-2.11.753-3.916 2.259-5.418 1.506-1.503 3.317-2.254 5.432-2.254h16.919V4.598c0-1.279.449-2.366 1.346-3.26.898-.895 1.987-1.343 3.269-1.343h27.686c1.282 0 2.372.448 3.268 1.343.898.895 1.346 1.981 1.346 3.26v7.673h16.92c2.114 0 3.925.751 5.431 2.254 1.507 1.502 2.259 3.308 2.259 5.418v18.415H.857V19.943zm30.763-7.672h24.61V6.133H31.62v6.138z" filter="url(#a)"/></svg>