<svg xmlns="http://www.w3.org/2000/svg" width="87" height="74"><defs><filter id="a"><feFlood flood-color="#54D154" flood-opacity="1" result="floodOut"/><feComposite operator="atop" in="floodOut" in2="SourceGraphic" result="compOut"/><feBlend in="compOut" in2="SourceGraphic"/></filter></defs><path fill-rule="evenodd" d="M85.198 72.207c-1.202 1.198-2.652 1.799-4.351 1.799H7.018c-1.699 0-3.149-.601-4.351-1.799-1.202-1.199-1.802-2.646-1.802-4.34V6.487c0-1.695.601-3.141 1.802-4.34C3.869.949 5.319.348 7.018.348h73.83c1.698 0 3.149.6 4.35 1.799C86.399 3.346 87 4.793 87 6.487v61.38c0 1.694-.601 3.141-1.802 4.34zM31.627 3.418H13.17v6.138h18.457V3.418zm49.221 9.687V6.487H41.049l-3.076 6.138H7.018v6.138h73.83v-5.658zM25.475 40.342c0 5.083 1.802 9.423 5.407 13.019 3.606 3.597 7.955 5.395 13.05 5.395 5.096 0 9.446-1.798 13.05-5.395 3.605-3.596 5.408-7.936 5.408-13.019s-1.803-9.423-5.408-13.02c-3.604-3.596-7.954-5.394-13.05-5.394-5.095 0-9.444 1.798-13.05 5.394-3.604 3.597-5.407 7.937-5.407 13.02zm55.373 21.387H7.018v6.138h73.83v-6.138zM43.932 28.066c3.397 0 6.297 1.199 8.7 3.597 2.404 2.397 3.606 5.29 3.606 8.679 0 3.389-1.202 6.282-3.606 8.68-2.403 2.397-5.303 3.596-8.7 3.596-3.396 0-6.296-1.199-8.7-3.596-2.403-2.398-3.605-5.291-3.605-8.68 0-3.389 1.202-6.282 3.605-8.679 2.404-2.398 5.303-3.597 8.7-3.597zm-7.258 13.283c.288.288.657.431 1.105.431.45 0 .818-.143 1.106-.431.289-.288.433-.655.433-1.103 0-1.279.448-2.365 1.345-3.261.898-.895 1.987-1.342 3.269-1.342.448 0 .817-.144 1.105-.432.29-.288.434-.656.434-1.103 0-.448-.144-.816-.433-1.103-.289-.288-.657-.431-1.106-.431-2.115 0-3.925.751-5.431 2.253-1.507 1.503-2.26 3.309-2.26 5.419 0 .448.144.815.433 1.103z" filter="url(#a)"/></svg>