<svg xmlns="http://www.w3.org/2000/svg" width="20" height="20"><defs><filter id="a"><feFlood flood-color="#00ACED" flood-opacity="1" result="floodOut"/><feComposite operator="atop" in="floodOut" in2="SourceGraphic" result="compOut"/><feBlend in="compOut" in2="SourceGraphic"/></filter></defs><path fill-rule="evenodd" d="M10 0C4.477 0 0 4.477 0 10c0 5.522 4.477 10 10 10 5.522 0 10-4.478 10-10 0-5.524-4.478-10-10-10zm4.976 7.755l.007.318c0 3.255-2.477 7.005-7.006 7.005a6.978 6.978 0 0 1-3.774-1.106 4.943 4.943 0 0 0 3.645-1.018 2.465 2.465 0 0 1-2.299-1.711 2.465 2.465 0 0 0 1.112-.042 2.464 2.464 0 0 1-1.975-2.414v-.031c.333.185.711.295 1.115.309a2.464 2.464 0 0 1-.762-3.286 6.987 6.987 0 0 0 5.074 2.572 2.461 2.461 0 0 1 2.399-3.022c.708 0 1.348.298 1.798.776a4.972 4.972 0 0 0 1.564-.596 2.468 2.468 0 0 1-1.083 1.362 4.968 4.968 0 0 0 1.414-.387 5 5 0 0 1-1.229 1.271z" filter="url(#a)"/></svg>